# xmcd
#
# Track frame offsets: 
#        150
#        5163
#        8339
#        13427
#        18509
#        25254
#        30354
#        34975
#        40254
#        47789
#        52926
#        59087
#        64201
#        79120
#        86732
#        90186
#        94606
#        98006
#        103017
#        107775
#        115422
#        125225
#        131368
#        141436
#        151388
#        161374
#        171483
#        180687
#        190850
#        202142
#        209774
#        218917
#        226420
#        241325
#        256236
#        264841
#        273371
#        283180
#        292812
#        302247
#        309963
#
# Disc length: 4165 seconds
#
# Revision: 0
# Processed by: cddbd v1.5.2PL0 Copyright (c) Steve Scherf et al.
# Submitted via: ExactAudioCopy v1.1
#
DISCID=4a104329
DTITLE=Patrick Steinbach - The Irish Flute Book
DYEAR=1900
DGENRE=Folk
TTITLE0=Ballydesmond Polka
TTITLE1=The Lark in the Morning
TTITLE2=Johnny's Wedding
TTITLE3=Spancil Hill
TTITLE4=Sally Gardens
TTITLE5=Higgins' Hornpipe
TTITLE6=Brian Boru's March
TTITLE7=Carrickfergus
TTITLE8=Tripping up the Stairs
TTITLE9=As I roved out
TTITLE10=Cait Ni Duibhir
TTITLE11=Valley of Knockanure
TTITLE12=Strayaway Child
TTITLE13=You'll never deceive me again
TTITLE14=Raggle Taggle Gypsies
TTITLE15=Four Green Fields
TTITLE16=Padraig O'Keeffe's Slide
TTITLE17=Blarney Pilgrim
TTITLE18=Lady Gethin
TTITLE19=Captain O'Kain
TTITLE20=Ballydesmond Polka
TTITLE21=The Lark in the Morning
TTITLE22=Johnny's Wedding
TTITLE23=Spancil Hill
TTITLE24=Sally Gardens
TTITLE25=Higgins' Hornpipe
TTITLE26=Brian Boru's March
TTITLE27=Carrickfergus
TTITLE28=Tripping up the Stairs
TTITLE29=As I roved out
TTITLE30=Cait Ni Duibhir
TTITLE31=Valley of Knockanure
TTITLE32=Strayaway Child
TTITLE33=You'll never deceive me again
TTITLE34=Raggle Taggle Gypsies
TTITLE35=Four Green Fields
TTITLE36=Padraig O'Keeffe's Slide
TTITLE37=Blarney Pilgrim
TTITLE38=Lady Gethin
TTITLE39=Captain O'Kain
TTITLE40=Tuning pitch 440 Hz (a', a'')
EXTD=
EXTT0=
EXTT1=
EXTT2=
EXTT3=
EXTT4=
EXTT5=
EXTT6=
EXTT7=
EXTT8=
EXTT9=
EXTT10=
EXTT11=
EXTT12=
EXTT13=
EXTT14=
EXTT15=
EXTT16=
EXTT17=
EXTT18=
EXTT19=
EXTT20=
EXTT21=
EXTT22=
EXTT23=
EXTT24=
EXTT25=
EXTT26=
EXTT27=
EXTT28=
EXTT29=
EXTT30=
EXTT31=
EXTT32=
EXTT33=
EXTT34=
EXTT35=
EXTT36=
EXTT37=
EXTT38=
EXTT39=
EXTT40=
PLAYORDER=
